<svg width="52" height="52" viewBox="0 0 52 52" fill="none" xmlns="http://www.w3.org/2000/svg">
<rect width="52" height="52" rx="10" fill="#F05326"/>
<g clip-path="url(#clip0_34_55)">
<path d="M31.8333 16.833H20.1667C19.062 16.8343 18.003 17.2737 17.2218 18.0549C16.4407 18.836 16.0013 19.895 16 20.9997V30.9997C16.0013 32.1043 16.4407 33.1634 17.2218 33.9445C18.003 34.7256 19.062 35.165 20.1667 35.1663H31.8333C32.938 35.165 33.997 34.7256 34.7782 33.9445C35.5593 33.1634 35.9987 32.1043 36 30.9997V20.9997C35.9987 19.895 35.5593 18.836 34.7782 18.0549C33.997 17.2737 32.938 16.8343 31.8333 16.833ZM20.1667 18.4997H31.8333C32.3323 18.5007 32.8196 18.6509 33.2325 18.9312C33.6453 19.2114 33.9649 19.6088 34.15 20.0722L27.7683 26.4547C27.2987 26.9224 26.6628 27.1851 26 27.1851C25.3372 27.1851 24.7013 26.9224 24.2317 26.4547L17.85 20.0722C18.0351 19.6088 18.3547 19.2114 18.7675 18.9312C19.1804 18.6509 19.6677 18.5007 20.1667 18.4997ZM31.8333 33.4997H20.1667C19.5036 33.4997 18.8677 33.2363 18.3989 32.7674C17.9301 32.2986 17.6667 31.6627 17.6667 30.9997V22.2497L23.0533 27.633C23.8355 28.4132 24.8952 28.8514 26 28.8514C27.1048 28.8514 28.1645 28.4132 28.9467 27.633L34.3333 22.2497V30.9997C34.3333 31.6627 34.0699 32.2986 33.6011 32.7674C33.1323 33.2363 32.4964 33.4997 31.8333 33.4997Z" fill="white"/>
</g>
<defs>
<clipPath id="clip0_34_55">
<rect width="20" height="20" fill="white" transform="translate(16 16)"/>
</clipPath>
</defs>
</svg>
